<svg width="340" height="37" viewBox="0 0 340 37" fill="none" xmlns="http://www.w3.org/2000/svg">
<path d="M5.35 36H0.85V0.299998H20.8V4.25H5.35V16.9H19.85V20.85H5.35V36ZM36.3277 8.75C39.5944 8.75 42.0111 9.46667 43.5777 10.9C45.1444 12.3333 45.9277 14.6167 45.9277 17.75V36H42.7277L41.8777 32.2H41.6777C40.9111 33.1667 40.1111 33.9833 39.2777 34.65C38.4777 35.2833 37.5444 35.75 36.4777 36.05C35.4444 36.35 34.1777 36.5 32.6777 36.5C31.0777 36.5 29.6277 36.2167 28.3277 35.65C27.0611 35.0833 26.0611 34.2167 25.3277 33.05C24.5944 31.85 24.2277 30.35 24.2277 28.55C24.2277 25.8833 25.2777 23.8333 27.3777 22.4C29.4777 20.9333 32.7111 20.1333 37.0777 20L41.6277 19.85V18.25C41.6277 16.0167 41.1444 14.4667 40.1777 13.6C39.2111 12.7333 37.8444 12.3 36.0777 12.3C34.6777 12.3 33.3444 12.5167 32.0777 12.95C30.8111 13.35 29.6277 13.8167 28.5277 14.35L27.1777 11.05C28.3444 10.4167 29.7277 9.88333 31.3277 9.45C32.9277 8.98333 34.5944 8.75 36.3277 8.75ZM37.6277 23.05C34.2944 23.1833 31.9777 23.7167 30.6777 24.65C29.4111 25.5833 28.7777 26.9 28.7777 28.6C28.7777 30.1 29.2277 31.2 30.1277 31.9C31.0611 32.6 32.2444 32.95 33.6777 32.95C35.9444 32.95 37.8277 32.3333 39.3277 31.1C40.8277 29.8333 41.5777 27.9 41.5777 25.3V22.9L37.6277 23.05ZM64.9551 36.5C62.5884 36.5 60.4717 36.0167 58.6051 35.05C56.7717 34.0833 55.3217 32.5833 54.2551 30.55C53.2217 28.5167 52.7051 25.9167 52.7051 22.75C52.7051 19.45 53.2551 16.7667 54.3551 14.7C55.4551 12.6333 56.9384 11.1167 58.8051 10.15C60.7051 9.18333 62.8551 8.7 65.2551 8.7C66.6217 8.7 67.9384 8.85 69.2051 9.15C70.4717 9.41667 71.5051 9.75 72.3051 10.15L70.9551 13.8C70.1551 13.5 69.2217 13.2167 68.1551 12.95C67.0884 12.6833 66.0884 12.55 65.1551 12.55C63.3551 12.55 61.8717 12.9333 60.7051 13.7C59.5384 14.4667 58.6717 15.6 58.1051 17.1C57.5384 18.6 57.2551 20.4667 57.2551 22.7C57.2551 24.8333 57.5384 26.65 58.1051 28.15C58.6717 29.65 59.5217 30.7833 60.6551 31.55C61.7884 32.3167 63.2051 32.7 64.9051 32.7C66.3717 32.7 67.6551 32.55 68.7551 32.25C69.8884 31.95 70.9217 31.5833 71.8551 31.15V35.05C70.9551 35.5167 69.9551 35.8667 68.8551 36.1C67.7884 36.3667 66.4884 36.5 64.9551 36.5ZM88.5785 8.7C90.8785 8.7 92.8452 9.2 94.4785 10.2C96.1452 11.2 97.4118 12.6167 98.2785 14.45C99.1785 16.25 99.6285 18.3667 99.6285 20.8V23.45H81.2785C81.3452 26.4833 82.1118 28.8 83.5785 30.4C85.0785 31.9667 87.1618 32.75 89.8285 32.75C91.5285 32.75 93.0285 32.6 94.3285 32.3C95.6618 31.9667 97.0285 31.5 98.4285 30.9V34.75C97.0618 35.35 95.7118 35.7833 94.3785 36.05C93.0452 36.35 91.4619 36.5 89.6285 36.5C87.0952 36.5 84.8452 35.9833 82.8785 34.95C80.9452 33.9167 79.4285 32.3833 78.3285 30.35C77.2618 28.2833 76.7285 25.7667 76.7285 22.8C76.7285 19.8667 77.2118 17.35 78.1785 15.25C79.1785 13.15 80.5618 11.5333 82.3285 10.4C84.1285 9.26667 86.2118 8.7 88.5785 8.7ZM88.5285 12.3C86.4285 12.3 84.7618 12.9833 83.5285 14.35C82.3285 15.6833 81.6118 17.55 81.3785 19.95H95.0285C95.0285 18.4167 94.7952 17.0833 94.3285 15.95C93.8618 14.8167 93.1452 13.9333 92.1785 13.3C91.2452 12.6333 90.0285 12.3 88.5285 12.3ZM130.267 17.85L139.567 0.299998H144.417L132.517 22.15V36H128.017V22.35L116.117 0.299998H121.017L130.267 17.85ZM169.497 22.55C169.497 24.7833 169.197 26.7667 168.597 28.5C168.031 30.2 167.197 31.65 166.097 32.85C165.031 34.05 163.714 34.9667 162.147 35.6C160.614 36.2 158.897 36.5 156.997 36.5C155.231 36.5 153.597 36.2 152.097 35.6C150.597 34.9667 149.297 34.05 148.197 32.85C147.097 31.65 146.231 30.2 145.597 28.5C144.997 26.7667 144.697 24.7833 144.697 22.55C144.697 19.5833 145.197 17.0833 146.197 15.05C147.197 12.9833 148.631 11.4167 150.497 10.35C152.364 9.25 154.581 8.7 157.147 8.7C159.581 8.7 161.714 9.25 163.547 10.35C165.414 11.4167 166.864 12.9833 167.897 15.05C168.964 17.0833 169.497 19.5833 169.497 22.55ZM149.247 22.55C149.247 24.65 149.514 26.4833 150.047 28.05C150.614 29.5833 151.481 30.7667 152.647 31.6C153.814 32.4333 155.297 32.85 157.097 32.85C158.897 32.85 160.381 32.4333 161.547 31.6C162.714 30.7667 163.564 29.5833 164.097 28.05C164.664 26.4833 164.947 24.65 164.947 22.55C164.947 20.4167 164.664 18.6 164.097 17.1C163.531 15.6 162.664 14.45 161.497 13.65C160.364 12.8167 158.881 12.4 157.047 12.4C154.314 12.4 152.331 13.3 151.097 15.1C149.864 16.9 149.247 19.3833 149.247 22.55ZM198.871 9.2V36H195.271L194.621 32.45H194.421C193.854 33.3833 193.121 34.15 192.221 34.75C191.321 35.35 190.337 35.7833 189.271 36.05C188.204 36.35 187.087 36.5 185.921 36.5C183.787 36.5 181.987 36.1667 180.521 35.5C179.087 34.8 178.004 33.7333 177.271 32.3C176.537 30.8667 176.171 29.0167 176.171 26.75V9.2H180.621V26.45C180.621 28.5833 181.104 30.1833 182.071 31.25C183.037 32.3167 184.537 32.85 186.571 32.85C188.571 32.85 190.137 32.4833 191.271 31.75C192.437 30.9833 193.254 29.8833 193.721 28.45C194.221 26.9833 194.471 25.2167 194.471 23.15V9.2H198.871ZM219.879 8.7C220.379 8.7 220.912 8.73333 221.479 8.8C222.079 8.83333 222.596 8.9 223.029 9L222.479 13.05C222.046 12.95 221.562 12.8667 221.029 12.8C220.529 12.7333 220.046 12.7 219.579 12.7C218.546 12.7 217.562 12.9167 216.629 13.35C215.696 13.7833 214.862 14.4 214.129 15.2C213.396 15.9667 212.812 16.9 212.379 18C211.979 19.1 211.779 20.3333 211.779 21.7V36H207.379V9.2H210.979L211.479 14.1H211.679C212.246 13.1 212.929 12.2 213.729 11.4C214.529 10.5667 215.446 9.91667 216.479 9.45C217.512 8.95 218.646 8.7 219.879 8.7ZM247.049 36H242.549V0.299998H262.499V4.25H247.049V16.9H261.549V20.85H247.049V36ZM278.227 8.7C280.527 8.7 282.494 9.2 284.127 10.2C285.794 11.2 287.06 12.6167 287.927 14.45C288.827 16.25 289.277 18.3667 289.277 20.8V23.45H270.927C270.994 26.4833 271.76 28.8 273.227 30.4C274.727 31.9667 276.81 32.75 279.477 32.75C281.177 32.75 282.677 32.6 283.977 32.3C285.31 31.9667 286.677 31.5 288.077 30.9V34.75C286.71 35.35 285.36 35.7833 284.027 36.05C282.694 36.35 281.11 36.5 279.277 36.5C276.744 36.5 274.494 35.9833 272.527 34.95C270.594 33.9167 269.077 32.3833 267.977 30.35C266.91 28.2833 266.377 25.7667 266.377 22.8C266.377 19.8667 266.86 17.35 267.827 15.25C268.827 13.15 270.21 11.5333 271.977 10.4C273.777 9.26667 275.86 8.7 278.227 8.7ZM278.177 12.3C276.077 12.3 274.41 12.9833 273.177 14.35C271.977 15.6833 271.26 17.55 271.027 19.95H284.677C284.677 18.4167 284.444 17.0833 283.977 15.95C283.51 14.8167 282.794 13.9333 281.827 13.3C280.894 12.6333 279.677 12.3 278.177 12.3ZM306.25 8.75C309.516 8.75 311.933 9.46667 313.5 10.9C315.066 12.3333 315.85 14.6167 315.85 17.75V36H312.65L311.8 32.2H311.6C310.833 33.1667 310.033 33.9833 309.2 34.65C308.4 35.2833 307.466 35.75 306.4 36.05C305.366 36.35 304.1 36.5 302.6 36.5C301 36.5 299.55 36.2167 298.25 35.65C296.983 35.0833 295.983 34.2167 295.25 33.05C294.516 31.85 294.15 30.35 294.15 28.55C294.15 25.8833 295.2 23.8333 297.3 22.4C299.4 20.9333 302.633 20.1333 307 20L311.55 19.85V18.25C311.55 16.0167 311.066 14.4667 310.1 13.6C309.133 12.7333 307.766 12.3 306 12.3C304.6 12.3 303.266 12.5167 302 12.95C300.733 13.35 299.55 13.8167 298.45 14.35L297.1 11.05C298.266 10.4167 299.65 9.88333 301.25 9.45C302.85 8.98333 304.516 8.75 306.25 8.75ZM307.55 23.05C304.216 23.1833 301.9 23.7167 300.6 24.65C299.333 25.5833 298.7 26.9 298.7 28.6C298.7 30.1 299.15 31.2 300.05 31.9C300.983 32.6 302.166 32.95 303.6 32.95C305.866 32.95 307.75 32.3333 309.25 31.1C310.75 29.8333 311.5 27.9 311.5 25.3V22.9L307.55 23.05ZM336.627 8.7C337.127 8.7 337.66 8.73333 338.227 8.8C338.827 8.83333 339.344 8.9 339.777 9L339.227 13.05C338.794 12.95 338.31 12.8667 337.777 12.8C337.277 12.7333 336.794 12.7 336.327 12.7C335.294 12.7 334.31 12.9167 333.377 13.35C332.444 13.7833 331.61 14.4 330.877 15.2C330.144 15.9667 329.56 16.9 329.127 18C328.727 19.1 328.527 20.3333 328.527 21.7V36H324.127V9.2H327.727L328.227 14.1H328.427C328.994 13.1 329.677 12.2 330.477 11.4C331.277 10.5667 332.194 9.91667 333.227 9.45C334.26 8.95 335.394 8.7 336.627 8.7Z" fill="black"/>
</svg>
